<mxfile host="app.diagrams.net" modified="2021-01-09T08:35:14.296Z" agent="5.0 (Windows NT 10.0; Win64; x64) AppleWebKit/537.36 (KHTML, like Gecko) Chrome/87.0.4280.88 Safari/537.36 Edg/87.0.664.66" etag="cHAiujSQ4y29yK-144KL" version="14.1.3" type="github">
  <diagram id="R9emuJHgr07Qib1sMZeY" name="Page-1">
    <mxGraphModel dx="1038" dy="580" grid="1" gridSize="10" guides="1" tooltips="1" connect="1" arrows="1" fold="1" page="1" pageScale="1" pageWidth="827" pageHeight="1169" math="0" shadow="0">
      <root>
        <mxCell id="0" />
        <mxCell id="1" parent="0" />
        <mxCell id="RwY4z-6PNhBlAMYUoLb3-8" style="edgeStyle=orthogonalEdgeStyle;rounded=0;orthogonalLoop=1;jettySize=auto;html=1;exitX=0.5;exitY=0;exitDx=0;exitDy=0;entryX=0.5;entryY=1;entryDx=0;entryDy=0;" edge="1" parent="1" source="RwY4z-6PNhBlAMYUoLb3-2" target="RwY4z-6PNhBlAMYUoLb3-7">
          <mxGeometry relative="1" as="geometry" />
        </mxCell>
        <mxCell id="RwY4z-6PNhBlAMYUoLb3-2" value="&lt;font style=&quot;font-size: 24px&quot;&gt;S&lt;/font&gt;" style="rounded=0;whiteSpace=wrap;html=1;" vertex="1" parent="1">
          <mxGeometry x="190" y="220" width="110" height="60" as="geometry" />
        </mxCell>
        <mxCell id="RwY4z-6PNhBlAMYUoLb3-6" style="edgeStyle=orthogonalEdgeStyle;rounded=0;orthogonalLoop=1;jettySize=auto;html=1;exitX=0.5;exitY=0;exitDx=0;exitDy=0;entryX=0.5;entryY=1;entryDx=0;entryDy=0;" edge="1" parent="1" source="RwY4z-6PNhBlAMYUoLb3-3" target="RwY4z-6PNhBlAMYUoLb3-2">
          <mxGeometry relative="1" as="geometry" />
        </mxCell>
        <mxCell id="RwY4z-6PNhBlAMYUoLb3-3" value="&lt;sub&gt;&lt;font style=&quot;font-size: 24px&quot;&gt;x&lt;/font&gt;&lt;font style=&quot;font-size: 12px&quot;&gt;t&lt;/font&gt;&lt;/sub&gt;" style="ellipse;whiteSpace=wrap;html=1;aspect=fixed;" vertex="1" parent="1">
          <mxGeometry x="220" y="320" width="50" height="50" as="geometry" />
        </mxCell>
        <mxCell id="RwY4z-6PNhBlAMYUoLb3-7" value="&lt;font style=&quot;font-size: 24px&quot;&gt;H&lt;/font&gt;t" style="ellipse;whiteSpace=wrap;html=1;aspect=fixed;" vertex="1" parent="1">
          <mxGeometry x="220" y="130" width="50" height="50" as="geometry" />
        </mxCell>
        <mxCell id="RwY4z-6PNhBlAMYUoLb3-12" value="&lt;font&gt;s&lt;/font&gt;&lt;font style=&quot;font-size: 12px&quot;&gt;t-1&lt;/font&gt;" style="endArrow=classic;html=1;entryX=0;entryY=0.5;entryDx=0;entryDy=0;fontSize=24;" edge="1" parent="1">
          <mxGeometry width="50" height="50" relative="1" as="geometry">
            <mxPoint x="119" y="250" as="sourcePoint" />
            <mxPoint x="189" y="250" as="targetPoint" />
          </mxGeometry>
        </mxCell>
        <mxCell id="RwY4z-6PNhBlAMYUoLb3-14" value="&lt;font&gt;s&lt;/font&gt;&lt;font style=&quot;font-size: 12px&quot;&gt;t&lt;/font&gt;" style="endArrow=classic;html=1;entryX=0;entryY=0.5;entryDx=0;entryDy=0;fontSize=24;" edge="1" parent="1">
          <mxGeometry width="50" height="50" relative="1" as="geometry">
            <mxPoint x="300" y="249.5" as="sourcePoint" />
            <mxPoint x="370" y="249.5" as="targetPoint" />
          </mxGeometry>
        </mxCell>
      </root>
    </mxGraphModel>
  </diagram>
</mxfile>
